<svg width="250" height="250" viewBox="0 0 250 250" fill="none" xmlns="http://www.w3.org/2000/svg">
<rect width="250" height="250" fill="#283845"/>
<path d="M196 125.5C196 164.436 164.436 196 125.5 196C86.5639 196 55 164.436 55 125.5C55 86.5639 86.5639 55 125.5 55C164.436 55 196 86.5639 196 125.5Z" fill="white"/>
<path d="M185.425 125.5C185.425 158.596 158.596 185.425 125.5 185.425C92.4043 185.425 65.575 158.596 65.575 125.5C65.575 92.4043 92.4043 65.575 125.5 65.575C158.596 65.575 185.425 92.4043 185.425 125.5Z" fill="#283845"/>
<path d="M176.612 125.5C176.612 153.729 153.729 176.613 125.5 176.613C97.2713 176.613 74.3875 153.729 74.3875 125.5C74.3875 97.2714 97.2713 74.3875 125.5 74.3875C153.729 74.3875 176.612 97.2714 176.612 125.5Z" fill="white"/>
</svg>
